<svg xmlns="http://www.w3.org/2000/svg" viewBox="0 0 1200 750" role="img" aria-labelledby="title desc">
  <title id="title">Alecol EdTech POC</title>
  <desc id="desc">Interactive learning interface style visual.</desc>
  <defs>
    <linearGradient id="bg" x1="0" y1="0" x2="1" y2="1">
      <stop offset="0%" stop-color="#122643" />
      <stop offset="100%" stop-color="#0b1321" />
    </linearGradient>
  </defs>
  <rect width="1200" height="750" fill="url(#bg)" />
  <rect x="120" y="110" width="960" height="530" rx="28" fill="#163055" stroke="#355a8b" stroke-width="3" />
  <rect x="155" y="155" width="890" height="72" rx="14" fill="#0f2037" />
  <rect x="185" y="181" width="250" height="20" rx="10" fill="#2ebac6" opacity="0.8" />
  <rect x="455" y="181" width="190" height="20" rx="10" fill="#5d77a5" />
  <rect x="665" y="181" width="170" height="20" rx="10" fill="#5d77a5" />
  <rect x="855" y="181" width="160" height="20" rx="10" fill="#f26f3d" opacity="0.8" />
  <rect x="170" y="260" width="420" height="330" rx="18" fill="#0f2037" stroke="#3b669e" stroke-width="2" />
  <rect x="620" y="260" width="410" height="150" rx="18" fill="#0f2037" stroke="#3b669e" stroke-width="2" />
  <rect x="620" y="440" width="410" height="150" rx="18" fill="#0f2037" stroke="#3b669e" stroke-width="2" />
  <rect x="210" y="315" width="340" height="36" rx="10" fill="#223d66" />
  <rect x="210" y="370" width="160" height="36" rx="10" fill="#2ebac6" opacity="0.8" />
  <rect x="390" y="370" width="160" height="36" rx="10" fill="#f26f3d" opacity="0.8" />
  <rect x="650" y="305" width="300" height="18" rx="9" fill="#2ebac6" opacity="0.8" />
  <rect x="650" y="336" width="210" height="16" rx="8" fill="#5d77a5" />
  <rect x="650" y="483" width="250" height="18" rx="9" fill="#f26f3d" opacity="0.8" />
  <rect x="650" y="515" width="290" height="16" rx="8" fill="#5d77a5" />
  <text x="150" y="685" fill="#e5edff" font-size="48" font-family="Segoe UI, sans-serif" font-weight="700">ALECOL - INTERACTIVE EDTECH POC</text>
</svg>
