<svg xmlns="http://www.w3.org/2000/svg" viewBox="0 0 1200 750" role="img" aria-labelledby="title desc">
  <title id="title">SG ATS Pricing Platforms</title>
  <desc id="desc">Abstract dashboard visual for financial product pricing platforms.</desc>
  <defs>
    <linearGradient id="bg" x1="0" y1="0" x2="1" y2="1">
      <stop offset="0%" stop-color="#112645" />
      <stop offset="100%" stop-color="#0a1528" />
    </linearGradient>
    <linearGradient id="accent" x1="0" y1="0" x2="1" y2="0">
      <stop offset="0%" stop-color="#2ebac6" />
      <stop offset="100%" stop-color="#f26f3d" />
    </linearGradient>
  </defs>
  <rect width="1200" height="750" fill="url(#bg)" />
  <circle cx="1050" cy="120" r="190" fill="#2ebac6" opacity="0.16" />
  <circle cx="180" cy="620" r="220" fill="#f26f3d" opacity="0.12" />
  <rect x="90" y="120" width="1020" height="500" rx="30" fill="#152c4f" stroke="#2e456f" stroke-width="3" />
  <rect x="130" y="170" width="480" height="38" rx="10" fill="#243a62" />
  <rect x="130" y="235" width="320" height="18" rx="9" fill="#2d4d7f" />
  <rect x="130" y="270" width="250" height="18" rx="9" fill="#2d4d7f" />
  <rect x="130" y="325" width="420" height="215" rx="16" fill="#0e203b" stroke="#305284" stroke-width="2" />
  <path d="M155 500 L230 430 L315 460 L385 380 L480 410" stroke="url(#accent)" stroke-width="7" fill="none" stroke-linecap="round" stroke-linejoin="round" />
  <rect x="640" y="170" width="420" height="140" rx="16" fill="#0f2038" stroke="#305284" stroke-width="2" />
  <rect x="640" y="340" width="420" height="200" rx="16" fill="#0f2038" stroke="#305284" stroke-width="2" />
  <rect x="670" y="205" width="160" height="16" rx="8" fill="#2ebac6" opacity="0.75" />
  <rect x="670" y="380" width="240" height="18" rx="9" fill="#f26f3d" opacity="0.8" />
  <rect x="670" y="416" width="320" height="18" rx="9" fill="#2ebac6" opacity="0.6" />
  <text x="130" y="665" fill="#dce8ff" font-size="48" font-family="Segoe UI, sans-serif" font-weight="700">SG ATS PRICING PLATFORMS</text>
</svg>
