<svg xmlns="http://www.w3.org/2000/svg" viewBox="0 0 1200 750" role="img" aria-labelledby="title desc">
  <title id="title">PriceWork Salary Comparison App</title>
  <desc id="desc">Salary analytics style cover for Upwork project.</desc>
  <defs>
    <linearGradient id="bg" x1="0" y1="0" x2="1" y2="1">
      <stop offset="0%" stop-color="#132746" />
      <stop offset="100%" stop-color="#0a1222" />
    </linearGradient>
  </defs>
  <rect width="1200" height="750" fill="url(#bg)" />
  <rect x="105" y="105" width="990" height="540" rx="30" fill="#162f53" stroke="#35598b" stroke-width="3" />
  <rect x="150" y="160" width="900" height="70" rx="14" fill="#0f1f37" />
  <rect x="180" y="183" width="330" height="24" rx="12" fill="#2ebac6" opacity="0.8" />
  <rect x="530" y="183" width="240" height="24" rx="12" fill="#4e6791" />
  <rect x="790" y="183" width="220" height="24" rx="12" fill="#4e6791" />
  <rect x="150" y="260" width="420" height="320" rx="18" fill="#0f1f37" />
  <rect x="590" y="260" width="460" height="320" rx="18" fill="#0f1f37" />
  <path d="M200 520 L260 470 L320 490 L390 430 L470 410" stroke="#2ebac6" stroke-width="8" fill="none" stroke-linecap="round" stroke-linejoin="round" />
  <path d="M200 540 L260 535 L320 520 L390 500 L470 470" stroke="#f26f3d" stroke-width="8" fill="none" stroke-linecap="round" stroke-linejoin="round" />
  <rect x="630" y="320" width="120" height="220" rx="14" fill="#2ebac6" opacity="0.65" />
  <rect x="780" y="380" width="120" height="160" rx="14" fill="#f26f3d" opacity="0.8" />
  <rect x="930" y="300" width="80" height="240" rx="14" fill="#7fa9dd" opacity="0.7" />
  <text x="150" y="685" fill="#e5edff" font-size="48" font-family="Segoe UI, sans-serif" font-weight="700">PRICEWORK - SALARY COMPARISON APP</text>
</svg>
